<?xml version="1.0" encoding="utf-8"?>
<!-- Generator: Adobe Illustrator 25.0.0, SVG Export Plug-In . SVG Version: 6.00 Build 0)  -->
<svg version="1.1" id="圖層_1" xmlns="http://www.w3.org/2000/svg" xmlns:xlink="http://www.w3.org/1999/xlink" x="0px" y="0px"
	 viewBox="0 0 260 70" style="enable-background:new 0 0 260 70;" xml:space="preserve">
<style type="text/css">
	.st0{fill:none;}
</style>
<g>
	<polygon points="0,0 30,70 40,70 10,0 	"/>
	<polygon points="80,0 55,58.3 30,0 20,0 50,70 60,70 90,0 	"/>
</g>
<g>
	<polygon points="260,70 230,0 220,0 250,70 	"/>
	<polygon points="180,70 205,11.7 230,70 240,70 210,0 200,0 170,70 	"/>
</g>
<path d="M134.7,0H130h-20h-6.7H100L70,70h5.6H80h20h7h3l30-70H134.7z M103,63H83l24-56h20L103,63z"/>
<path d="M184.7,0H180h-20h-6.7H150l-30,70h5.6h4.4h20h7h3l30-70H184.7z M153,63h-20l24-56h20L153,63z"/>
</svg>
